<svg width="510" height="345" viewBox="0 0 510 345" fill="none" xmlns="http://www.w3.org/2000/svg">
<path d="M466.51 120.711C465.975 121.151 465.439 121.572 464.891 121.986H329.672C328.665 121.572 327.662 121.147 326.664 120.711C312.389 114.501 299.102 106.232 287.228 96.1671C279.343 89.4894 272.089 82.5951 266.831 76.134C259.494 67.1179 252.738 57.2925 249.595 46.0972C246.459 34.9019 247.396 22.069 254.401 12.7853C256.571 9.92946 259.237 7.4882 262.273 5.57873C262.777 5.26014 263.287 4.9543 263.809 4.66756C272.21 -0.0475939 282.81 -1.19453 292.27 1.24588C305.814 4.74402 317.071 14.512 325.102 25.9686C333.133 37.4188 338.348 50.5703 343.485 63.5752C348.699 40.3626 364.487 19.5713 385.815 9.0004C407.136 -1.57047 433.627 -1.44303 454.495 10.0072C461.061 13.6317 466.992 18.3019 472.056 23.834C472.559 24.3756 473.05 24.93 473.534 25.4907C483.713 37.2722 490.081 52.3608 490.604 67.9208C491.273 87.9665 481.98 108.102 466.51 120.711Z" fill="#F2F2F2"/>
<path d="M335.077 121.986H333.165C333.14 121.559 333.108 121.138 333.07 120.711C332.401 112.377 331.002 104.117 328.888 96.0269C324.039 77.5574 315.755 60.1654 304.469 44.7591C293.216 29.3035 279.03 16.2134 262.72 6.23501C262.6 6.16668 262.498 6.07205 262.421 5.95833C262.343 5.84461 262.293 5.71479 262.274 5.57871C262.242 5.40078 262.262 5.21764 262.331 5.05065C262.4 4.88365 262.515 4.73968 262.663 4.6355C262.81 4.53132 262.985 4.47123 263.165 4.46224C263.346 4.45325 263.525 4.49572 263.682 4.58471C263.726 4.61006 263.768 4.6377 263.809 4.66754C273.05 10.298 281.628 16.9496 289.382 24.4967C303.252 38.0217 314.435 54.0485 322.342 71.7311C329.318 87.2177 333.591 103.784 334.976 120.711C335.014 121.138 335.046 121.565 335.077 121.986Z" fill="white"/>
<path d="M473.534 25.4907C473.52 25.4979 473.505 25.5022 473.49 25.5035C472.094 25.7583 470.691 26.026 469.302 26.3127C457.895 28.6544 446.73 32.0437 435.946 36.4375C425.192 40.8251 414.847 46.1558 405.032 52.3671C395.206 58.5752 385.939 65.6279 377.337 73.4452C368.736 81.2512 360.846 89.8061 353.76 99.009C348.464 105.904 343.649 113.155 339.348 120.711C339.106 121.132 338.87 121.559 338.634 121.986H336.448C336.677 121.559 336.913 121.132 337.156 120.711C342.358 111.453 348.324 102.644 354.99 94.3766C362.362 85.2267 370.534 76.7506 379.409 69.0486C388.227 61.39 397.692 54.5083 407.697 48.4803C417.743 42.4279 428.306 37.2764 439.261 33.086C449.892 29.0231 460.868 25.9266 472.056 23.834C472.368 23.7767 472.674 23.7194 472.986 23.662C474.178 23.4453 474.688 25.2422 473.534 25.4907Z" fill="white"/>
<path d="M126.002 125.774C129.402 119.357 129.963 110.999 125.735 105.095C123.218 101.58 119.288 99.2724 115.165 97.971C111.042 96.6696 106.692 96.2871 102.379 95.9708C98.1103 95.6578 93.7654 95.4072 89.5953 96.3724C85.4252 97.3375 81.386 99.6954 79.3545 103.462C75.9227 109.824 79.0489 117.983 76.5283 124.758C74.2152 130.975 67.6319 134.61 61.1604 136.077C54.6888 137.544 47.9341 137.388 41.4593 138.841C34.9846 140.293 28.3903 143.895 26.0362 150.097C24.3338 154.582 25.1796 159.748 27.4228 163.988C29.666 168.229 33.1791 171.662 36.9081 174.681C42.4713 179.185 48.9797 183.042 56.1278 183.433C63.6595 183.844 71.0239 180.26 76.4449 175.017C81.8658 169.773 85.5564 162.998 88.505 156.057C90.3755 151.654 92.1428 146.916 95.8914 143.943C98.6459 141.758 102.149 140.801 105.547 139.896L109.394 138.871C112.88 137.959 116.143 136.343 118.981 134.124C121.82 131.905 124.174 129.128 125.899 125.966C125.933 125.902 125.968 125.838 126.002 125.774Z" fill="#2F2E41"/>
<path d="M95.6608 336.857H87.8469L84.1289 306.726H95.6627L95.6608 336.857Z" fill="#FFB8B8"/>
<path d="M82.2648 334.624H97.3354V344.11H72.7758C72.7758 342.864 73.0213 341.631 73.4981 340.48C73.975 339.329 74.6739 338.283 75.5551 337.403C76.4362 336.522 77.4823 335.823 78.6335 335.346C79.7848 334.87 81.0187 334.624 82.2648 334.624Z" fill="#2F2E41"/>
<path d="M160.676 336.857H152.862L149.144 306.726H160.678L160.676 336.857Z" fill="#FFB8B8"/>
<path d="M147.28 334.624H162.35V344.11H137.791C137.791 342.864 138.036 341.631 138.513 340.48C138.99 339.329 139.689 338.283 140.57 337.403C141.451 336.522 142.497 335.823 143.649 335.346C144.8 334.87 146.034 334.624 147.28 334.624Z" fill="#2F2E41"/>
<path d="M110.682 312.908C110.573 312.908 110.464 312.902 110.356 312.891L78.564 309.485C78.1418 309.44 77.734 309.306 77.3679 309.091C77.0018 308.875 76.6856 308.585 76.4406 308.238C76.1956 307.892 76.0272 307.497 75.9468 307.08C75.8663 306.663 75.8756 306.234 75.9741 305.821L104.123 198.793C104.255 198.248 104.537 197.752 104.936 197.358C105.335 196.965 105.836 196.691 106.383 196.568L132.496 189.291C133.02 189.176 133.565 189.203 134.074 189.369C134.584 189.535 135.04 189.834 135.396 190.235C152.185 209.166 164.837 251.132 174.422 304.027C174.494 304.426 174.484 304.836 174.393 305.231C174.302 305.626 174.131 305.999 173.892 306.326C173.652 306.653 173.348 306.928 172.998 307.134C172.649 307.341 172.261 307.473 171.858 307.525L145.809 310.849C145.07 310.946 144.322 310.762 143.712 310.334C143.102 309.906 142.675 309.266 142.513 308.539L129.839 252.053C129.723 251.533 129.431 251.069 129.013 250.739C128.595 250.408 128.076 250.231 127.543 250.237C127.01 250.243 126.496 250.432 126.086 250.773C125.675 251.113 125.394 251.583 125.29 252.106L113.606 310.504C113.474 311.182 113.11 311.793 112.576 312.231C112.043 312.67 111.373 312.909 110.682 312.908Z" fill="#2F2E41"/>
<path d="M105.847 140.47C114.493 140.47 121.502 133.464 121.502 124.82C121.502 116.177 114.493 109.171 105.847 109.171C97.2003 109.171 90.1912 116.177 90.1912 124.82C90.1912 133.464 97.2003 140.47 105.847 140.47Z" fill="#FFB8B8"/>
<path d="M105.409 199.094C104.751 199.093 104.112 198.875 103.59 198.474C103.069 198.072 102.695 197.509 102.527 196.873L93.1093 161.503C92.4295 158.962 92.711 156.259 93.8999 153.912C95.0889 151.565 97.1018 149.739 99.5534 148.782C107.135 145.824 114.358 144.726 121.021 145.519C126.944 146.225 134.25 181.277 133.767 182.025L136.104 189.033C136.237 189.431 136.284 189.852 136.244 190.269C136.203 190.686 136.075 191.09 135.868 191.454C135.661 191.818 135.38 192.135 135.043 192.384C134.705 192.633 134.32 192.808 133.91 192.898L106.059 199.023C105.846 199.07 105.628 199.094 105.409 199.094Z" fill="#CCCCCC"/>
<path d="M113.85 235.265C113.984 234.569 113.964 233.852 113.791 233.164C113.618 232.477 113.296 231.836 112.848 231.286C112.401 230.736 111.838 230.291 111.199 229.982C110.561 229.674 109.863 229.509 109.153 229.499L103.727 213.142L98.1815 220.175L104.184 234.629C104.247 235.821 104.745 236.949 105.583 237.798C106.422 238.648 107.543 239.16 108.735 239.239C109.926 239.317 111.105 238.956 112.048 238.223C112.99 237.491 113.632 236.438 113.85 235.265Z" fill="#FFB8B8"/>
<path d="M183.612 195.956C183.287 195.325 182.828 194.774 182.267 194.341C181.706 193.907 181.057 193.602 180.365 193.446C179.673 193.29 178.955 193.288 178.263 193.44C177.57 193.591 176.919 193.893 176.355 194.323L161.978 184.815L161.965 193.77L175.62 201.426C176.406 202.325 177.494 202.904 178.678 203.054C179.863 203.204 181.061 202.914 182.047 202.24C183.032 201.565 183.735 200.553 184.024 199.395C184.312 198.237 184.166 197.013 183.612 195.956H183.612Z" fill="#FFB8B8"/>
<path d="M102.474 227.708C101.845 227.708 101.232 227.51 100.722 227.142C100.213 226.774 99.8321 226.254 99.6347 225.658L86.9142 198.758C86.3925 197.182 86.1268 195.532 86.1272 193.871L89.9516 158.908C89.9514 156.951 90.6987 155.067 92.0408 153.641C93.3829 152.216 95.2186 151.356 97.1732 151.238C99.1279 151.12 101.054 151.751 102.558 153.005C104.063 154.258 105.032 156.038 105.268 157.981L99.4171 197.888L108.754 222.382C108.902 223.033 108.827 223.716 108.54 224.319C108.254 224.923 107.773 225.413 107.175 225.711L103.81 227.393C103.395 227.6 102.938 227.708 102.474 227.708Z" fill="#CCCCCC"/>
<path d="M170.411 199.487C169.942 199.487 169.48 199.377 169.062 199.166L143.765 186.392C142.282 185.644 140.929 184.663 139.757 183.487L115.066 158.724C113.683 157.338 112.882 155.476 112.826 153.52C112.77 151.563 113.464 149.659 114.765 148.196C116.065 146.732 117.876 145.821 119.826 145.647C121.776 145.473 123.72 146.049 125.259 147.259L152.006 176.953L173.208 190.411C173.773 190.768 174.202 191.304 174.425 191.934C174.648 192.564 174.654 193.25 174.44 193.883L173.245 197.449C173.046 198.042 172.665 198.559 172.156 198.924C171.648 199.29 171.037 199.487 170.411 199.487L170.411 199.487Z" fill="#CCCCCC"/>
<path d="M88.0394 116.729C90.6987 120.207 94.5213 122.611 98.8084 123.503C103.154 124.401 107.676 123.753 111.595 121.672C114.748 119.969 117.271 117.413 119.742 114.897C120.773 113.846 121.872 112.635 121.82 111.202C121.74 108.983 119.07 107.769 116.779 107.285C109.258 105.717 101.433 106.596 94.449 109.795C91.3385 111.24 88.0976 113.853 88.5647 117.101" fill="#2F2E41"/>
<path d="M499.164 120.711H191.936C189.063 120.715 186.31 121.858 184.278 123.889C182.247 125.919 181.104 128.672 181.1 131.544V250.06C181.104 252.931 182.247 255.684 184.278 257.715C186.31 259.745 189.063 260.888 191.936 260.892H499.164C502.037 260.888 504.791 259.745 506.822 257.715C508.853 255.684 509.996 252.931 510 250.06V131.544C509.996 128.672 508.853 125.919 506.822 123.889C504.791 121.858 502.037 120.715 499.164 120.711ZM508.725 250.06C508.722 252.594 507.714 255.023 505.921 256.815C504.129 258.606 501.699 259.614 499.164 259.617H191.936C189.401 259.614 186.971 258.606 185.179 256.815C183.386 255.023 182.378 252.594 182.375 250.06V131.544C182.378 129.01 183.386 126.58 185.179 124.789C186.971 122.997 189.401 121.989 191.936 121.986H499.164C501.699 121.989 504.129 122.997 505.921 124.789C507.714 126.58 508.722 129.01 508.725 131.544V250.06Z" fill="#3F3D56"/>
<path d="M247.717 227.758C240.406 227.758 233.258 225.591 227.178 221.53C221.099 217.469 216.36 211.697 213.562 204.944C210.764 198.191 210.032 190.761 211.458 183.592C212.885 176.423 216.406 169.838 221.576 164.669C226.746 159.501 233.334 155.981 240.505 154.555C247.676 153.129 255.11 153.861 261.865 156.658C268.62 159.455 274.394 164.192 278.456 170.27C282.519 176.347 284.687 183.492 284.687 190.802C284.676 200.6 280.777 209.993 273.847 216.922C266.916 223.85 257.519 227.747 247.717 227.758ZM247.717 155.119C240.658 155.119 233.757 157.212 227.887 161.133C222.017 165.054 217.442 170.627 214.74 177.147C212.038 183.667 211.331 190.841 212.709 197.763C214.086 204.685 217.486 211.043 222.478 216.033C227.47 221.023 233.83 224.421 240.754 225.798C247.678 227.175 254.855 226.468 261.377 223.768C267.899 221.067 273.474 216.494 277.396 210.626C281.319 204.758 283.412 197.859 283.412 190.802C283.401 181.341 279.637 172.272 272.945 165.582C266.254 158.893 257.181 155.13 247.717 155.119Z" fill="#3F3D56"/>
<path d="M471.747 167.226H324.507C322.449 167.227 320.471 168.024 318.988 169.451C317.505 170.878 316.632 172.823 316.552 174.878C316.542 174.982 316.537 175.086 316.539 175.191C316.542 177.302 317.383 179.326 318.876 180.819C320.37 182.312 322.395 183.152 324.507 183.155H471.747C473.86 183.155 475.887 182.316 477.381 180.823C478.875 179.329 479.715 177.303 479.715 175.191C479.715 173.078 478.875 171.052 477.381 169.559C475.887 168.065 473.86 167.226 471.747 167.226Z" fill="#00AEEF"/>
<path d="M471.747 198.448H324.507C322.449 198.449 320.471 199.246 318.988 200.673C317.505 202.1 316.632 204.045 316.552 206.1C316.542 206.204 316.537 206.308 316.539 206.413C316.542 208.524 317.383 210.548 318.876 212.041C320.37 213.534 322.395 214.374 324.507 214.377H471.747C473.86 214.377 475.887 213.538 477.381 212.044C478.875 210.551 479.715 208.525 479.715 206.413C479.715 204.3 478.875 202.274 477.381 200.781C475.887 199.287 473.86 198.448 471.747 198.448Z" fill="#00AEEF"/>
<path d="M243.593 206.949C242.562 206.951 241.557 206.617 240.732 205.999L240.681 205.96L229.906 197.714C229.407 197.332 228.988 196.855 228.674 196.311C228.359 195.767 228.155 195.166 228.072 194.543C227.99 193.92 228.031 193.287 228.193 192.68C228.355 192.073 228.635 191.504 229.018 191.005C229.4 190.506 229.877 190.087 230.421 189.773C230.965 189.458 231.566 189.254 232.189 189.171C232.813 189.089 233.446 189.13 234.053 189.292C234.661 189.454 235.23 189.735 235.729 190.117L242.708 195.466L259.201 173.965C259.583 173.467 260.06 173.048 260.604 172.734C261.149 172.419 261.75 172.215 262.373 172.133C262.996 172.051 263.629 172.092 264.237 172.254C264.844 172.417 265.413 172.697 265.912 173.08L265.809 173.219L265.915 173.082C266.921 173.855 267.579 174.995 267.745 176.253C267.912 177.511 267.572 178.783 266.801 179.791L247.401 205.081C246.953 205.664 246.376 206.136 245.715 206.46C245.055 206.783 244.329 206.951 243.593 206.949Z" fill="#00AEEF"/>
<path d="M243.488 345H0.637412C0.468363 345 0.306236 344.933 0.1867 344.813C0.0671638 344.694 9.53674e-06 344.532 9.53674e-06 344.363C9.53674e-06 344.194 0.0671638 344.032 0.1867 343.912C0.306236 343.793 0.468363 343.726 0.637412 343.726H243.488C243.657 343.726 243.819 343.793 243.939 343.912C244.058 344.032 244.125 344.194 244.125 344.363C244.125 344.532 244.058 344.694 243.939 344.813C243.819 344.933 243.657 345 243.488 345Z" fill="#3F3D56"/>
<path d="M435.51 92.006C422.195 90.1751 408.672 90.4799 395.453 92.9088C382.272 95.3177 369.547 99.7651 357.736 106.091C351.098 109.657 344.798 113.817 338.914 118.522C337.953 119.29 339.313 120.635 340.266 119.874C350.592 111.663 362.166 105.159 374.55 100.608C386.836 96.0658 399.75 93.4469 412.835 92.844C420.239 92.5041 427.659 92.8406 435.002 93.8492C435.246 93.9077 435.504 93.8713 435.722 93.7474C435.94 93.6234 436.103 93.4213 436.178 93.1817C436.244 92.9373 436.211 92.6768 436.086 92.4567C435.961 92.2366 435.754 92.0747 435.51 92.006H435.51Z" fill="white"/>
</svg>
